<svg width="720" height="360" viewBox="0 0 720 360" fill="none" xmlns="http://www.w3.org/2000/svg" role="img" aria-labelledby="title desc">
  <title id="title">캔들 클릭 상승 하락 이유 샘플</title>
  <desc id="desc">종목 카드 차트의 캔들 기둥을 클릭하면 daily 분석이 확정한 그날의 상승 이유와 하락 이유 키워드가 열리는 예시</desc>
  <defs>
    <linearGradient id="panel" x1="0" y1="0" x2="720" y2="360" gradientUnits="userSpaceOnUse">
      <stop stop-color="#020617"/>
      <stop offset="0.62" stop-color="#0f172a"/>
      <stop offset="1" stop-color="#111827"/>
    </linearGradient>
    <linearGradient id="glow" x1="348" y1="54" x2="662" y2="246" gradientUnits="userSpaceOnUse">
      <stop stop-color="#38bdf8" stop-opacity="0.22"/>
      <stop offset="1" stop-color="#ef4444" stop-opacity="0.1"/>
    </linearGradient>
    <filter id="softShadow" x="-20%" y="-20%" width="140%" height="140%" color-interpolation-filters="sRGB">
      <feDropShadow dx="0" dy="14" stdDeviation="18" flood-color="#000000" flood-opacity="0.3"/>
    </filter>
  </defs>

  <rect width="720" height="360" rx="28" fill="url(#panel)"/>
  <rect x="1" y="1" width="718" height="358" rx="27" stroke="#334155" stroke-opacity="0.8"/>
  <circle cx="604" cy="62" r="132" fill="url(#glow)"/>

  <text x="32" y="42" fill="#E2E8F0" font-family="Arial, 'Noto Sans KR', sans-serif" font-size="20" font-weight="700">캔들 클릭 = 그날의 상승·하락 이유</text>
  <text x="32" y="66" fill="#94A3B8" font-family="Arial, 'Noto Sans KR', sans-serif" font-size="13">종목 카드의 그래프 기둥을 누르면 daily 최종 키워드가 열립니다.</text>
  <rect x="552" y="28" width="136" height="34" rx="17" fill="#0F172A" stroke="#38BDF8" stroke-opacity="0.45"/>
  <text x="579" y="50" fill="#BAE6FD" font-family="Arial, 'Noto Sans KR', sans-serif" font-size="12" font-weight="700">sample graph</text>

  <g filter="url(#softShadow)">
    <rect x="32" y="88" width="656" height="152" rx="18" fill="#020617" stroke="#1E293B"/>
    <path d="M56 122H664M56 158H664M56 194H664" stroke="#1E293B" stroke-width="1"/>
    <path d="M114 102V224M204 102V224M294 102V224M384 102V224M474 102V224M564 102V224" stroke="#1E293B" stroke-width="1"/>
    <path d="M58 204C95 190 112 183 147 188C179 193 190 171 222 166C254 161 272 178 306 150C345 118 369 126 405 134C436 141 452 154 486 142C525 128 549 104 592 116C623 125 641 112 666 98" stroke="#64748B" stroke-width="2" stroke-linecap="round" stroke-dasharray="4 6"/>

    <g stroke-width="3" stroke-linecap="round">
      <path d="M92 178V210" stroke="#60A5FA"/>
      <rect x="84" y="190" width="16" height="14" rx="2" fill="#60A5FA"/>
      <path d="M136 164V202" stroke="#60A5FA"/>
      <rect x="128" y="176" width="16" height="20" rx="2" fill="#60A5FA"/>
      <path d="M180 156V190" stroke="#F87171"/>
      <rect x="172" y="160" width="16" height="22" rx="2" fill="#F87171"/>
      <path d="M224 132V176" stroke="#F87171"/>
      <rect x="216" y="140" width="16" height="28" rx="2" fill="#F87171"/>
      <path d="M268 118V160" stroke="#F87171"/>
      <rect x="260" y="124" width="16" height="30" rx="2" fill="#F87171"/>
      <path d="M312 118V158" stroke="#60A5FA"/>
      <rect x="304" y="126" width="16" height="22" rx="2" fill="#60A5FA"/>
      <path d="M356 112V152" stroke="#F87171"/>
      <rect x="348" y="116" width="16" height="28" rx="2" fill="#F87171"/>
      <path d="M400 118V160" stroke="#60A5FA"/>
      <rect x="392" y="132" width="16" height="20" rx="2" fill="#60A5FA"/>
      <path d="M444 128V174" stroke="#60A5FA"/>
      <rect x="436" y="142" width="16" height="24" rx="2" fill="#60A5FA"/>
      <path d="M488 114V158" stroke="#F87171"/>
      <rect x="480" y="122" width="16" height="26" rx="2" fill="#F87171"/>
      <path d="M532 98V146" stroke="#F87171"/>
      <rect x="524" y="104" width="16" height="32" rx="2" fill="#F87171"/>
      <path d="M576 110V154" stroke="#60A5FA"/>
      <rect x="568" y="120" width="16" height="26" rx="2" fill="#60A5FA"/>
      <path d="M620 94V136" stroke="#F87171"/>
      <rect x="612" y="100" width="16" height="26" rx="2" fill="#F87171"/>
    </g>

    <circle cx="532" cy="104" r="13" fill="#EF4444" fill-opacity="0.2" stroke="#FCA5A5" stroke-width="2"/>
    <path d="M532 96L532 72" stroke="#FCA5A5" stroke-width="2" stroke-linecap="round"/>
    <path d="M526 78L532 70L538 78" stroke="#FCA5A5" stroke-width="2" stroke-linecap="round" stroke-linejoin="round"/>
    <rect x="404" y="24" width="260" height="68" rx="14" fill="#0F172A" stroke="#EF4444" stroke-opacity="0.55"/>
    <text x="422" y="46" fill="#FECACA" font-family="Arial, 'Noto Sans KR', sans-serif" font-size="12" font-weight="700">클릭한 캔들 · 5/21</text>
    <text x="422" y="67" fill="#FFFFFF" font-family="Arial, 'Noto Sans KR', sans-serif" font-size="16" font-weight="700">상승 이유: 대형 계약 확대</text>
    <text x="574" y="68" fill="#FCA5A5" font-family="Arial, 'Noto Sans KR', sans-serif" font-size="13" font-weight="700">▲</text>
  </g>

  <g>
    <text x="36" y="271" fill="#CBD5E1" font-family="Arial, 'Noto Sans KR', sans-serif" font-size="13" font-weight="700">캔들별 최종 키워드</text>
    <text x="146" y="271" fill="#64748B" font-family="Arial, 'Noto Sans KR', sans-serif" font-size="12">각 날짜의 이유는 아래에도 남아 다시 볼 수 있습니다.</text>

    <rect x="32" y="286" width="190" height="48" rx="12" fill="#7F1D1D" fill-opacity="0.28" stroke="#EF4444" stroke-opacity="0.55"/>
    <text x="48" y="306" fill="#FCA5A5" font-family="Arial, 'Noto Sans KR', sans-serif" font-size="11">5/21 · 상승 이유</text>
    <text x="48" y="323" fill="#FEE2E2" font-family="Arial, 'Noto Sans KR', sans-serif" font-size="13" font-weight="700">대형 계약 확대</text>

    <rect x="236" y="286" width="190" height="48" rx="12" fill="#172554" fill-opacity="0.36" stroke="#60A5FA" stroke-opacity="0.55"/>
    <text x="252" y="306" fill="#BFDBFE" font-family="Arial, 'Noto Sans KR', sans-serif" font-size="11">5/17 · 하락 이유</text>
    <text x="252" y="323" fill="#DBEAFE" font-family="Arial, 'Noto Sans KR', sans-serif" font-size="13" font-weight="700">마진 압박 우려</text>

    <rect x="440" y="286" width="190" height="48" rx="12" fill="#78350F" fill-opacity="0.28" stroke="#F59E0B" stroke-opacity="0.55"/>
    <text x="456" y="306" fill="#FDE68A" font-family="Arial, 'Noto Sans KR', sans-serif" font-size="11">5/13 · 혼재</text>
    <text x="456" y="323" fill="#FEF3C7" font-family="Arial, 'Noto Sans KR', sans-serif" font-size="13" font-weight="700">실적 기대와 규제 부담</text>
  </g>
</svg>
